mtllib Tetrahedron.mtl
g Part 1
usemtl 0.615686_0.811765_0.929412_0.000000_0.000000
o mesh0
v 0.117318 -7.80709e-17 -2.17049e-18 
v -0.0586588 0.1016 -4.16334e-17 
v -1.73472e-18 8.68201e-18 0.165913 
vn 0.471405 0.816497 0.333332 
vn 0.471405 0.816497 0.333332 
vn 0.471405 0.816497 0.333332 
f 1//1 2//2 3//3 
o mesh1
v -0.0586588 0.1016 -4.16334e-17 
v -0.0586588 -0.1016 -2.11882e-17 
v -1.73472e-18 8.68201e-18 0.165913 
vn -0.942809 3.54147e-16 0.333332 
vn -0.942809 3.54147e-16 0.333332 
vn -0.942809 3.54147e-16 0.333332 
f 4//4 5//5 6//6 
o mesh2
v -1.73472e-18 8.68201e-18 0.165913 
v -0.0586588 -0.1016 -2.11882e-17 
v 0.117318 -7.80709e-17 -2.17049e-18 
vn 0.471405 -0.816497 0.333332 
vn 0.471405 -0.816497 0.333332 
vn 0.471405 -0.816497 0.333332 
f 7//7 8//8 9//9 
o mesh3
v 0.117318 -7.80709e-17 -2.17049e-18 
v -0.0586588 -0.1016 -2.11882e-17 
v -0.0586588 0.1016 -4.16334e-17 
vn -4.80741e-17 1.38778e-16 -1 
vn -4.80741e-17 1.38778e-16 -1 
vn -4.80741e-17 1.38778e-16 -1 
f 10//10 11//11 12//12 
