mtllib stabilizer.mtl
g Part 32
usemtl 0.682353_0.333333_0.737255_0.000000_0.000000
o mesh0
v 0.411123 -0.378465 0.9144 
v 0.395131 -0.395131 0.9144 
v 0.395131 -0.395131 1.8288 
v 0.426411 -0.361152 0.9144 
v 0.411123 -0.378465 1.8288 
v 0.440972 -0.343222 0.9144 
v 0.426411 -0.361152 1.8288 
v 0.454779 -0.324706 0.9144 
v 0.440972 -0.343222 1.8288 
v 0.467809 -0.305635 0.9144 
v 0.454779 -0.324706 1.8288 
v 0.480039 -0.286041 0.9144 
v 0.467809 -0.305635 1.8288 
v 0.49145 -0.265959 0.9144 
v 0.480039 -0.286041 1.8288 
v 0.502021 -0.245423 0.9144 
v 0.49145 -0.265959 1.8288 
v 0.511734 -0.224467 0.9144 
v 0.502021 -0.245423 1.8288 
v 0.520573 -0.203128 0.9144 
v 0.511734 -0.224467 1.8288 
v 0.528523 -0.181442 0.9144 
v 0.520573 -0.203128 1.8288 
v 0.535569 -0.159446 0.9144 
v 0.528523 -0.181442 1.8288 
v 0.541701 -0.137177 0.9144 
v 0.535569 -0.159446 1.8288 
v 0.546907 -0.114674 0.9144 
v 0.541701 -0.137177 1.8288 
v 0.551179 -0.0919755 0.9144 
v 0.546907 -0.114674 1.8288 
v 0.554509 -0.0691194 0.9144 
v 0.551179 -0.0919755 1.8288 
v 0.556891 -0.0461453 0.9144 
v 0.554509 -0.0691194 1.8288 
v 0.558323 -0.0230924 0.9144 
v 0.556891 -0.0461453 1.8288 
v 0.5588 -1.79724e-16 0.9144 
v 0.558323 -0.0230924 1.8288 
v 0.558323 0.0230924 0.9144 
v 0.5588 -1.79724e-16 1.8288 
v 0.556891 0.0461453 0.9144 
v 0.558323 0.0230924 1.8288 
v 0.554509 0.0691194 0.9144 
v 0.556891 0.0461453 1.8288 
v 0.551179 0.0919755 0.9144 
v 0.554509 0.0691194 1.8288 
v 0.546907 0.114674 0.9144 
v 0.551179 0.0919755 1.8288 
v 0.541701 0.137177 0.9144 
v 0.546907 0.114674 1.8288 
v 0.535569 0.159446 0.9144 
v 0.541701 0.137177 1.8288 
v 0.528523 0.181442 0.9144 
v 0.535569 0.159446 1.8288 
v 0.520573 0.203128 0.9144 
v 0.528523 0.181442 1.8288 
v 0.511734 0.224467 0.9144 
v 0.520573 0.203128 1.8288 
v 0.502021 0.245423 0.9144 
v 0.511734 0.224467 1.8288 
v 0.49145 0.265959 0.9144 
v 0.502021 0.245423 1.8288 
v 0.480039 0.286041 0.9144 
v 0.49145 0.265959 1.8288 
v 0.467809 0.305635 0.9144 
v 0.480039 0.286041 1.8288 
v 0.454779 0.324706 0.9144 
v 0.467809 0.305635 1.8288 
v 0.440972 0.343222 0.9144 
v 0.454779 0.324706 1.8288 
v 0.426411 0.361152 0.9144 
v 0.440972 0.343222 1.8288 
v 0.411123 0.378465 0.9144 
v 0.426411 0.361152 1.8288 
v 0.395131 0.395131 0.9144 
v 0.411123 0.378465 1.8288 
v 0.395131 0.395131 1.8288 
vn -0.735724 0.677282 -0 
vn -0.707107 0.707107 -0 
vn -0.707107 0.707107 -0 
vn -0.763084 0.646299 -0 
vn -0.735724 0.677282 -0 
vn -0.789141 0.614213 -0 
vn -0.763084 0.646299 -0 
vn -0.813849 0.581077 -0 
vn -0.789141 0.614213 -0 
vn -0.837166 0.546948 -0 
vn -0.813849 0.581077 -0 
vn -0.859054 0.511885 -0 
vn -0.837166 0.546948 -0 
vn -0.879474 0.475947 -0 
vn -0.859054 0.511885 -0 
vn -0.898391 0.439197 -0 
vn -0.879474 0.475947 -0 
vn -0.915773 0.401695 -0 
vn -0.898391 0.439197 -0 
vn -0.931591 0.363508 -0 
vn -0.915773 0.401695 -0 
vn -0.945817 0.324699 -0 
vn -0.931591 0.363508 -0 
vn -0.958427 0.285336 -0 
vn -0.945817 0.324699 -0 
vn -0.9694 0.245485 -0 
vn -0.958427 0.285336 -0 
vn -0.978717 0.205215 -0 
vn -0.9694 0.245485 -0 
vn -0.986361 0.164595 -0 
vn -0.978717 0.205215 -0 
vn -0.992321 0.123693 -0 
vn -0.986361 0.164595 -0 
vn -0.996584 0.0825793 -0 
vn -0.992321 0.123693 -0 
vn -0.999146 0.041325 -0 
vn -0.996584 0.0825793 -0 
vn -1 3.21625e-16 -0 
vn -0.999146 0.041325 -0 
vn -0.999146 -0.041325 -0 
vn -1 3.21625e-16 -0 
vn -0.996584 -0.0825793 -0 
vn -0.999146 -0.041325 -0 
vn -0.992321 -0.123693 -0 
vn -0.996584 -0.0825793 -0 
vn -0.986361 -0.164595 -0 
vn -0.992321 -0.123693 -0 
vn -0.978717 -0.205215 -0 
vn -0.986361 -0.164595 -0 
vn -0.9694 -0.245485 -0 
vn -0.978717 -0.205215 -0 
vn -0.958427 -0.285336 -0 
vn -0.9694 -0.245485 -0 
vn -0.945817 -0.324699 -0 
vn -0.958427 -0.285336 -0 
vn -0.931591 -0.363508 -0 
vn -0.945817 -0.324699 -0 
vn -0.915773 -0.401695 -0 
vn -0.931591 -0.363508 -0 
vn -0.898391 -0.439197 -0 
vn -0.915773 -0.401695 -0 
vn -0.879474 -0.475947 -0 
vn -0.898391 -0.439197 -0 
vn -0.859054 -0.511885 -0 
vn -0.879474 -0.475947 -0 
vn -0.837166 -0.546948 -0 
vn -0.859054 -0.511885 -0 
vn -0.813849 -0.581077 -0 
vn -0.837166 -0.546948 -0 
vn -0.789141 -0.614213 -0 
vn -0.813849 -0.581077 -0 
vn -0.763084 -0.646299 -0 
vn -0.789141 -0.614213 -0 
vn -0.735724 -0.677282 -0 
vn -0.763084 -0.646299 -0 
vn -0.707107 -0.707107 -0 
vn -0.735724 -0.677282 -0 
vn -0.707107 -0.707107 -0 
f 1//1 2//2 3//3 
f 4//4 1//1 5//5 
f 6//6 4//4 7//7 
f 8//8 6//6 9//9 
f 10//10 8//8 11//11 
f 12//12 10//10 13//13 
f 14//14 12//12 15//15 
f 16//16 14//14 17//17 
f 18//18 16//16 19//19 
f 20//20 18//18 21//21 
f 22//22 20//20 23//23 
f 24//24 22//22 25//25 
f 26//26 24//24 27//27 
f 28//28 26//26 29//29 
f 30//30 28//28 31//31 
f 32//32 30//30 33//33 
f 34//34 32//32 35//35 
f 36//36 34//34 37//37 
f 38//38 36//36 39//39 
f 40//40 38//38 41//41 
f 42//42 40//40 43//43 
f 44//44 42//42 45//45 
f 46//46 44//44 47//47 
f 48//48 46//46 49//49 
f 50//50 48//48 51//51 
f 52//52 50//50 53//53 
f 54//54 52//52 55//55 
f 56//56 54//54 57//57 
f 58//58 56//56 59//59 
f 60//60 58//58 61//61 
f 62//62 60//60 63//63 
f 64//64 62//62 65//65 
f 66//66 64//64 67//67 
f 68//68 66//66 69//69 
f 70//70 68//68 71//71 
f 72//72 70//70 73//73 
f 74//74 72//72 75//75 
f 76//76 74//74 77//77 
f 77//77 78//78 76//76 
f 75//75 77//77 74//74 
f 73//73 75//75 72//72 
f 71//71 73//73 70//70 
f 69//69 71//71 68//68 
f 67//67 69//69 66//66 
f 65//65 67//67 64//64 
f 63//63 65//65 62//62 
f 61//61 63//63 60//60 
f 59//59 61//61 58//58 
f 57//57 59//59 56//56 
f 55//55 57//57 54//54 
f 53//53 55//55 52//52 
f 51//51 53//53 50//50 
f 49//49 51//51 48//48 
f 47//47 49//49 46//46 
f 45//45 47//47 44//44 
f 43//43 45//45 42//42 
f 41//41 43//43 40//40 
f 39//39 41//41 38//38 
f 37//37 39//39 36//36 
f 35//35 37//37 34//34 
f 33//33 35//35 32//32 
f 31//31 33//33 30//30 
f 29//29 31//31 28//28 
f 27//27 29//29 26//26 
f 25//25 27//27 24//24 
f 23//23 25//25 22//22 
f 21//21 23//23 20//20 
f 19//19 21//21 18//18 
f 17//17 19//19 16//16 
f 15//15 17//17 14//14 
f 13//13 15//15 12//12 
f 11//11 13//13 10//10 
f 9//9 11//11 8//8 
f 7//7 9//9 6//6 
f 5//5 7//7 4//4 
f 3//3 5//5 1//1 
o mesh1
v 0.602095 -0.0953624 0.9144 
v 0.551179 -0.0919755 0.9144 
v 0.554509 -0.0691194 0.9144 
v 0.597887 -0.118927 0.9144 
v 0.546907 -0.114674 0.9144 
v 0.605375 -0.0716508 0.9144 
v 0.556891 -0.0461453 0.9144 
v 0.607721 0.0478287 0.9144 
v 0.60913 0.0239328 0.9144 
v 0.558323 0.0230924 0.9144 
v 0.6096 7.46545e-17 0.9144 
v 0.5588 -1.79724e-16 0.9144 
v 0.60913 -0.0239328 0.9144 
v 0.558323 -0.0230924 0.9144 
v 0.607721 -0.0478287 0.9144 
v 0.592757 -0.142308 0.9144 
v 0.541701 -0.137177 0.9144 
v 0.493177 0.358314 0.9144 
v 0.454779 0.324706 0.9144 
v 0.440972 0.343222 0.9144 
v 0.506864 0.338676 0.9144 
v 0.467809 0.305635 0.9144 
v 0.602095 0.0953624 0.9144 
v 0.605375 0.0716508 0.9144 
v 0.554509 0.0691194 0.9144 
v 0.556891 0.0461453 0.9144 
v 0.586713 -0.16547 0.9144 
v 0.535569 -0.159446 0.9144 
v 0.579764 -0.188377 0.9144 
v 0.528523 -0.181442 0.9144 
v 0.571921 -0.210993 0.9144 
v 0.520573 -0.203128 0.9144 
v 0.447643 0.413797 0.9144 
v 0.411123 0.378465 0.9144 
v 0.395131 0.395131 0.9144 
v 0.463543 0.395904 0.9144 
v 0.426411 0.361152 0.9144 
v 0.478729 0.3774 0.9144 
v 0.519769 0.318515 0.9144 
v 0.480039 0.286041 0.9144 
v 0.531874 0.297864 0.9144 
v 0.49145 0.265959 0.9144 
v 0.543158 0.276753 0.9144 
v 0.502021 0.245423 0.9144 
v 0.553604 0.255215 0.9144 
v 0.511734 0.224467 0.9144 
v 0.563197 -0.233284 0.9144 
v 0.553604 -0.255215 0.9144 
v 0.511734 -0.224467 0.9144 
v 0.563197 0.233284 0.9144 
v 0.571921 0.210993 0.9144 
v 0.520573 0.203128 0.9144 
v 0.543158 -0.276753 0.9144 
v 0.502021 -0.245423 0.9144 
v 0.579764 0.188377 0.9144 
v 0.528523 0.181442 0.9144 
v 0.531874 -0.297864 0.9144 
v 0.49145 -0.265959 0.9144 
v 0.519769 -0.318515 0.9144 
v 0.480039 -0.286041 0.9144 
v 0.506864 -0.338676 0.9144 
v 0.467809 -0.305635 0.9144 
v 0.493177 -0.358314 0.9144 
v 0.454779 -0.324706 0.9144 
v 0.586713 0.16547 0.9144 
v 0.535569 0.159446 0.9144 
v 0.592757 0.142308 0.9144 
v 0.541701 0.137177 0.9144 
v 0.478729 -0.3774 0.9144 
v 0.440972 -0.343222 0.9144 
v 0.463543 -0.395904 0.9144 
v 0.447643 -0.413797 0.9144 
v 0.411123 -0.378465 0.9144 
v 0.431052 -0.431052 0.9144 
v 0.395131 -0.395131 0.9144 
v 0.597887 0.118927 0.9144 
v 0.546907 0.114674 0.9144 
v 0.551179 0.0919755 0.9144 
v 0.426411 -0.361152 0.9144 
v 0.431052 0.431052 0.9144 
vn 0 0 -1 
vn 0 0 -1 
vn 0 0 -1 
vn 0 0 -1 
vn 0 0 -1 
vn 0 0 -1 
vn 0 0 -1 
vn 0 0 -1 
vn 0 0 -1 
vn 0 0 -1 
vn 0 0 -1 
vn 0 0 -1 
vn 0 0 -1 
vn 0 0 -1 
vn 0 0 -1 
vn 0 0 -1 
vn 0 0 -1 
vn 0 0 -1 
vn 0 0 -1 
vn 0 0 -1 
vn 0 0 -1 
vn 0 0 -1 
vn 0 0 -1 
vn 0 0 -1 
vn 0 0 -1 
vn 0 0 -1 
vn 0 0 -1 
vn 0 0 -1 
vn 0 0 -1 
vn 0 0 -1 
vn 0 0 -1 
vn 0 0 -1 
vn 0 0 -1 
vn 0 0 -1 
vn 0 0 -1 
vn 0 0 -1 
vn 0 0 -1 
vn 0 0 -1 
vn 0 0 -1 
vn 0 0 -1 
vn 0 0 -1 
vn 0 0 -1 
vn 0 0 -1 
vn 0 0 -1 
vn 0 0 -1 
vn 0 0 -1 
vn 0 0 -1 
vn 0 0 -1 
vn 0 0 -1 
vn 0 0 -1 
vn 0 0 -1 
vn 0 0 -1 
vn 0 0 -1 
vn 0 0 -1 
vn 0 0 -1 
vn 0 0 -1 
vn 0 0 -1 
vn 0 0 -1 
vn 0 0 -1 
vn 0 0 -1 
vn 0 0 -1 
vn 0 0 -1 
vn 0 0 -1 
vn 0 0 -1 
vn 0 0 -1 
vn 0 0 -1 
vn 0 0 -1 
vn 0 0 -1 
vn 0 0 -1 
vn 0 0 -1 
vn 0 0 -1 
vn 0 0 -1 
vn 0 0 -1 
vn 0 0 -1 
vn 0 0 -1 
vn 0 0 -1 
vn 0 0 -1 
vn 0 0 -1 
vn 0 0 -1 
vn 0 0 -1 
f 79//79 80//80 81//81 
f 82//82 83//83 80//80 
f 84//84 81//81 85//85 
f 80//80 79//79 82//82 
f 86//86 87//87 88//88 
f 87//87 89//89 90//90 
f 91//91 92//92 90//90 
f 93//93 85//85 92//92 
f 81//81 84//84 79//79 
f 94//94 95//95 83//83 
f 96//96 97//97 98//98 
f 99//99 100//100 97//97 
f 101//101 102//102 103//103 
f 102//102 86//86 104//104 
f 90//90 88//88 87//87 
f 92//92 91//91 93//93 
f 83//83 82//82 94//94 
f 105//105 106//106 95//95 
f 107//107 108//108 106//106 
f 109//109 110//110 108//108 
f 111//111 112//112 113//113 
f 114//114 115//115 112//112 
f 116//116 98//98 115//115 
f 97//97 96//96 99//99 
f 117//117 118//118 100//100 
f 119//119 120//120 118//118 
f 121//121 122//122 120//120 
f 123//123 124//124 122//122 
f 104//104 103//103 102//102 
f 90//90 89//89 91//91 
f 95//95 94//94 105//105 
f 108//108 107//107 109//109 
f 125//125 126//126 127//127 
f 112//112 111//111 114//114 
f 98//98 116//116 96//96 
f 118//118 117//117 119//119 
f 122//122 121//121 123//123 
f 128//128 129//129 130//130 
f 88//88 104//104 86//86 
f 106//106 105//105 107//107 
f 110//110 109//109 125//125 
f 126//126 131//131 132//132 
f 115//115 114//114 116//116 
f 120//120 119//119 121//121 
f 124//124 123//123 128//128 
f 129//129 133//133 134//134 
f 85//85 93//93 84//84 
f 132//132 127//127 126//126 
f 131//131 135//135 136//136 
f 135//135 137//137 138//138 
f 137//137 139//139 140//140 
f 139//139 141//141 142//142 
f 100//100 99//99 117//117 
f 134//134 130//130 129//129 
f 133//133 143//143 144//144 
f 143//143 145//145 146//146 
f 127//127 110//110 125//125 
f 138//138 136//136 135//135 
f 142//142 140//140 139//139 
f 141//141 147//147 148//148 
f 149//149 150//150 151//151 
f 150//150 152//152 153//153 
f 130//130 124//124 128//128 
f 146//146 144//144 143//143 
f 145//145 154//154 155//155 
f 154//154 101//101 156//156 
f 136//136 132//132 131//131 
f 148//148 142//142 141//141 
f 147//147 149//149 157//157 
f 153//153 151//151 150//150 
f 144//144 134//134 133//133 
f 156//156 155//155 154//154 
f 140//140 138//138 137//137 
f 151//151 157//157 149//149 
f 155//155 146//146 145//145 
f 157//157 148//148 147//147 
f 103//103 156//156 101//101 
f 113//113 158//158 111//111 
o mesh2
v 0.431052 0.431052 0.9144 
v 0.431052 0.431052 1.8288 
v 0.447643 0.413797 1.8288 
v 0.447643 0.413797 0.9144 
v 0.463543 0.395904 1.8288 
v 0.463543 0.395904 0.9144 
v 0.478729 0.3774 1.8288 
v 0.478729 0.3774 0.9144 
v 0.493177 0.358314 1.8288 
v 0.493177 0.358314 0.9144 
v 0.506864 0.338676 1.8288 
v 0.506864 0.338676 0.9144 
v 0.519769 0.318515 1.8288 
v 0.519769 0.318515 0.9144 
v 0.531874 0.297864 1.8288 
v 0.531874 0.297864 0.9144 
v 0.543158 0.276753 1.8288 
v 0.543158 0.276753 0.9144 
v 0.553604 0.255215 1.8288 
v 0.553604 0.255215 0.9144 
v 0.563197 0.233284 1.8288 
v 0.563197 0.233284 0.9144 
v 0.571921 0.210993 1.8288 
v 0.571921 0.210993 0.9144 
v 0.579764 0.188377 1.8288 
v 0.579764 0.188377 0.9144 
v 0.586713 0.16547 1.8288 
v 0.586713 0.16547 0.9144 
v 0.592757 0.142308 1.8288 
v 0.592757 0.142308 0.9144 
v 0.597887 0.118927 1.8288 
v 0.597887 0.118927 0.9144 
v 0.602095 0.0953624 1.8288 
v 0.602095 0.0953624 0.9144 
v 0.605375 0.0716508 1.8288 
v 0.605375 0.0716508 0.9144 
v 0.607721 0.0478287 1.8288 
v 0.607721 0.0478287 0.9144 
v 0.60913 0.0239328 1.8288 
v 0.60913 0.0239328 0.9144 
v 0.6096 7.46545e-17 1.8288 
v 0.6096 7.46545e-17 0.9144 
v 0.60913 -0.0239328 1.8288 
v 0.60913 -0.0239328 0.9144 
v 0.607721 -0.0478287 1.8288 
v 0.607721 -0.0478287 0.9144 
v 0.605375 -0.0716508 1.8288 
v 0.605375 -0.0716508 0.9144 
v 0.602095 -0.0953624 1.8288 
v 0.602095 -0.0953624 0.9144 
v 0.597887 -0.118927 1.8288 
v 0.597887 -0.118927 0.9144 
v 0.592757 -0.142308 1.8288 
v 0.592757 -0.142308 0.9144 
v 0.586713 -0.16547 1.8288 
v 0.586713 -0.16547 0.9144 
v 0.579764 -0.188377 1.8288 
v 0.579764 -0.188377 0.9144 
v 0.571921 -0.210993 1.8288 
v 0.571921 -0.210993 0.9144 
v 0.563197 -0.233284 1.8288 
v 0.563197 -0.233284 0.9144 
v 0.553604 -0.255215 1.8288 
v 0.553604 -0.255215 0.9144 
v 0.543158 -0.276753 1.8288 
v 0.543158 -0.276753 0.9144 
v 0.531874 -0.297864 1.8288 
v 0.531874 -0.297864 0.9144 
v 0.519769 -0.318515 1.8288 
v 0.519769 -0.318515 0.9144 
v 0.506864 -0.338676 1.8288 
v 0.506864 -0.338676 0.9144 
v 0.493177 -0.358314 1.8288 
v 0.493177 -0.358314 0.9144 
v 0.478729 -0.3774 1.8288 
v 0.478729 -0.3774 0.9144 
v 0.463543 -0.395904 1.8288 
v 0.463543 -0.395904 0.9144 
v 0.447643 -0.413797 1.8288 
v 0.447643 -0.413797 0.9144 
v 0.431052 -0.431052 1.8288 
v 0.431052 -0.431052 0.9144 
vn 0.707107 0.707107 0 
vn 0.707107 0.707107 0 
vn 0.734323 0.678801 0 
vn 0.734323 0.678801 0 
vn 0.760406 0.649448 0 
vn 0.760406 0.649448 0 
vn 0.785317 0.619094 0 
vn 0.785317 0.619094 0 
vn 0.809017 0.587785 0 
vn 0.809017 0.587785 0 
vn 0.83147 0.55557 0 
vn 0.83147 0.55557 0 
vn 0.85264 0.522499 0 
vn 0.85264 0.522499 0 
vn 0.872496 0.488621 0 
vn 0.872496 0.488621 0 
vn 0.891007 0.45399 0 
vn 0.891007 0.45399 0 
vn 0.908143 0.41866 0 
vn 0.908143 0.41866 0 
vn 0.92388 0.382683 0 
vn 0.92388 0.382683 0 
vn 0.938191 0.346117 0 
vn 0.938191 0.346117 0 
vn 0.951057 0.309017 0 
vn 0.951057 0.309017 0 
vn 0.962455 0.27144 0 
vn 0.962455 0.27144 0 
vn 0.97237 0.233445 0 
vn 0.97237 0.233445 0 
vn 0.980785 0.19509 0 
vn 0.980785 0.19509 0 
vn 0.987688 0.156434 0 
vn 0.987688 0.156434 0 
vn 0.993068 0.117537 0 
vn 0.993068 0.117537 0 
vn 0.996917 0.0784591 0 
vn 0.996917 0.0784591 0 
vn 0.999229 0.0392598 0 
vn 0.999229 0.0392598 0 
vn 1 1.22465e-16 0 
vn 1 1.22465e-16 0 
vn 0.999229 -0.0392598 0 
vn 0.999229 -0.0392598 0 
vn 0.996917 -0.0784591 0 
vn 0.996917 -0.0784591 0 
vn 0.993068 -0.117537 0 
vn 0.993068 -0.117537 0 
vn 0.987688 -0.156434 0 
vn 0.987688 -0.156434 0 
vn 0.980785 -0.19509 0 
vn 0.980785 -0.19509 0 
vn 0.97237 -0.233445 0 
vn 0.97237 -0.233445 0 
vn 0.962455 -0.27144 0 
vn 0.962455 -0.27144 0 
vn 0.951057 -0.309017 0 
vn 0.951057 -0.309017 0 
vn 0.938191 -0.346117 0 
vn 0.938191 -0.346117 0 
vn 0.92388 -0.382683 0 
vn 0.92388 -0.382683 0 
vn 0.908143 -0.41866 0 
vn 0.908143 -0.41866 0 
vn 0.891007 -0.45399 0 
vn 0.891007 -0.45399 0 
vn 0.872496 -0.488621 0 
vn 0.872496 -0.488621 0 
vn 0.85264 -0.522499 0 
vn 0.85264 -0.522499 0 
vn 0.83147 -0.55557 0 
vn 0.83147 -0.55557 0 
vn 0.809017 -0.587785 0 
vn 0.809017 -0.587785 0 
vn 0.785317 -0.619094 0 
vn 0.785317 -0.619094 0 
vn 0.760406 -0.649448 0 
vn 0.760406 -0.649448 0 
vn 0.734323 -0.678801 0 
vn 0.734323 -0.678801 0 
vn 0.707107 -0.707107 0 
vn 0.707107 -0.707107 0 
f 159//159 160//160 161//161 
f 162//162 161//161 163//163 
f 164//164 163//163 165//165 
f 166//166 165//165 167//167 
f 168//168 167//167 169//169 
f 170//170 169//169 171//171 
f 172//172 171//171 173//173 
f 174//174 173//173 175//175 
f 176//176 175//175 177//177 
f 178//178 177//177 179//179 
f 180//180 179//179 181//181 
f 182//182 181//181 183//183 
f 184//184 183//183 185//185 
f 186//186 185//185 187//187 
f 188//188 187//187 189//189 
f 190//190 189//189 191//191 
f 192//192 191//191 193//193 
f 194//194 193//193 195//195 
f 196//196 195//195 197//197 
f 198//198 197//197 199//199 
f 200//200 199//199 201//201 
f 202//202 201//201 203//203 
f 204//204 203//203 205//205 
f 206//206 205//205 207//207 
f 208//208 207//207 209//209 
f 210//210 209//209 211//211 
f 212//212 211//211 213//213 
f 214//214 213//213 215//215 
f 216//216 215//215 217//217 
f 218//218 217//217 219//219 
f 220//220 219//219 221//221 
f 222//222 221//221 223//223 
f 224//224 223//223 225//225 
f 226//226 225//225 227//227 
f 228//228 227//227 229//229 
f 230//230 229//229 231//231 
f 232//232 231//231 233//233 
f 234//234 233//233 235//235 
f 236//236 235//235 237//237 
f 238//238 237//237 239//239 
f 239//239 240//240 238//238 
f 237//237 238//238 236//236 
f 235//235 236//236 234//234 
f 233//233 234//234 232//232 
f 231//231 232//232 230//230 
f 229//229 230//230 228//228 
f 227//227 228//228 226//226 
f 225//225 226//226 224//224 
f 223//223 224//224 222//222 
f 221//221 222//222 220//220 
f 219//219 220//220 218//218 
f 217//217 218//218 216//216 
f 215//215 216//216 214//214 
f 213//213 214//214 212//212 
f 211//211 212//212 210//210 
f 209//209 210//210 208//208 
f 207//207 208//208 206//206 
f 205//205 206//206 204//204 
f 203//203 204//204 202//202 
f 201//201 202//202 200//200 
f 199//199 200//200 198//198 
f 197//197 198//198 196//196 
f 195//195 196//196 194//194 
f 193//193 194//194 192//192 
f 191//191 192//192 190//190 
f 189//189 190//190 188//188 
f 187//187 188//188 186//186 
f 185//185 186//186 184//184 
f 183//183 184//184 182//182 
f 181//181 182//182 180//180 
f 179//179 180//180 178//178 
f 177//177 178//178 176//176 
f 175//175 176//176 174//174 
f 173//173 174//174 172//172 
f 171//171 172//172 170//170 
f 169//169 170//170 168//168 
f 167//167 168//168 166//166 
f 165//165 166//166 164//164 
f 163//163 164//164 162//162 
f 161//161 162//162 159//159 
o mesh3
v 0.597887 -0.118927 1.8288 
v 0.602095 -0.0953624 1.8288 
v 0.551179 -0.0919755 1.8288 
v 0.605375 -0.0716508 1.8288 
v 0.554509 -0.0691194 1.8288 
v 0.607721 -0.0478287 1.8288 
v 0.556891 -0.0461453 1.8288 
v 0.506864 -0.338676 1.8288 
v 0.467809 -0.305635 1.8288 
v 0.454779 -0.324706 1.8288 
v 0.519769 -0.318515 1.8288 
v 0.480039 -0.286041 1.8288 
v 0.592757 -0.142308 1.8288 
v 0.546907 -0.114674 1.8288 
v 0.60913 -0.0239328 1.8288 
v 0.558323 -0.0230924 1.8288 
v 0.6096 7.46545e-17 1.8288 
v 0.5588 -1.79724e-16 1.8288 
v 0.60913 0.0239328 1.8288 
v 0.558323 0.0230924 1.8288 
v 0.607721 0.0478287 1.8288 
v 0.556891 0.0461453 1.8288 
v 0.563197 0.233284 1.8288 
v 0.511734 0.224467 1.8288 
v 0.520573 0.203128 1.8288 
v 0.553604 0.255215 1.8288 
v 0.543158 0.276753 1.8288 
v 0.502021 0.245423 1.8288 
v 0.531874 0.297864 1.8288 
v 0.49145 0.265959 1.8288 
v 0.519769 0.318515 1.8288 
v 0.480039 0.286041 1.8288 
v 0.506864 0.338676 1.8288 
v 0.467809 0.305635 1.8288 
v 0.493177 0.358314 1.8288 
v 0.454779 0.324706 1.8288 
v 0.478729 0.3774 1.8288 
v 0.440972 0.343222 1.8288 
v 0.493177 -0.358314 1.8288 
v 0.440972 -0.343222 1.8288 
v 0.531874 -0.297864 1.8288 
v 0.49145 -0.265959 1.8288 
v 0.543158 -0.276753 1.8288 
v 0.502021 -0.245423 1.8288 
v 0.563197 -0.233284 1.8288 
v 0.520573 -0.203128 1.8288 
v 0.511734 -0.224467 1.8288 
v 0.571921 -0.210993 1.8288 
v 0.579764 -0.188377 1.8288 
v 0.528523 -0.181442 1.8288 
v 0.586713 -0.16547 1.8288 
v 0.535569 -0.159446 1.8288 
v 0.541701 -0.137177 1.8288 
v 0.605375 0.0716508 1.8288 
v 0.554509 0.0691194 1.8288 
v 0.602095 0.0953624 1.8288 
v 0.551179 0.0919755 1.8288 
v 0.571921 0.210993 1.8288 
v 0.528523 0.181442 1.8288 
v 0.463543 0.395904 1.8288 
v 0.426411 0.361152 1.8288 
v 0.553604 -0.255215 1.8288 
v 0.447643 0.413797 1.8288 
v 0.411123 0.378465 1.8288 
v 0.597887 0.118927 1.8288 
v 0.546907 0.114674 1.8288 
v 0.592757 0.142308 1.8288 
v 0.541701 0.137177 1.8288 
v 0.586713 0.16547 1.8288 
v 0.535569 0.159446 1.8288 
v 0.579764 0.188377 1.8288 
v 0.463543 -0.395904 1.8288 
v 0.426411 -0.361152 1.8288 
v 0.411123 -0.378465 1.8288 
v 0.478729 -0.3774 1.8288 
v 0.431052 0.431052 1.8288 
v 0.395131 0.395131 1.8288 
v 0.447643 -0.413797 1.8288 
v 0.395131 -0.395131 1.8288 
v 0.431052 -0.431052 1.8288 
vn -0 -0 1 
vn -0 -0 1 
vn -0 -0 1 
vn -0 -0 1 
vn -0 -0 1 
vn -0 -0 1 
vn -0 -0 1 
vn -0 -0 1 
vn -0 -0 1 
vn -0 -0 1 
vn -0 -0 1 
vn -0 -0 1 
vn -0 -0 1 
vn -0 -0 1 
vn -0 -0 1 
vn -0 -0 1 
vn -0 -0 1 
vn -0 -0 1 
vn -0 -0 1 
vn -0 -0 1 
vn -0 -0 1 
vn -0 -0 1 
vn -0 -0 1 
vn -0 -0 1 
vn -0 -0 1 
vn -0 -0 1 
vn -0 -0 1 
vn -0 -0 1 
vn -0 -0 1 
vn -0 -0 1 
vn -0 -0 1 
vn -0 -0 1 
vn -0 -0 1 
vn -0 -0 1 
vn -0 -0 1 
vn -0 -0 1 
vn -0 -0 1 
vn -0 -0 1 
vn -0 -0 1 
vn -0 -0 1 
vn -0 -0 1 
vn -0 -0 1 
vn -0 -0 1 
vn -0 -0 1 
vn -0 -0 1 
vn -0 -0 1 
vn -0 -0 1 
vn -0 -0 1 
vn -0 -0 1 
vn -0 -0 1 
vn -0 -0 1 
vn -0 -0 1 
vn -0 -0 1 
vn -0 -0 1 
vn -0 -0 1 
vn -0 -0 1 
vn -0 -0 1 
vn -0 -0 1 
vn -0 -0 1 
vn -0 -0 1 
vn -0 -0 1 
vn -0 -0 1 
vn -0 -0 1 
vn -0 -0 1 
vn -0 -0 1 
vn -0 -0 1 
vn -0 -0 1 
vn -0 -0 1 
vn -0 -0 1 
vn -0 -0 1 
vn -0 -0 1 
vn -0 -0 1 
vn -0 -0 1 
vn -0 -0 1 
vn -0 -0 1 
vn -0 -0 1 
vn -0 -0 1 
vn -0 -0 1 
vn -0 -0 1 
vn -0 -0 1 
f 241//241 242//242 243//243 
f 242//242 244//244 245//245 
f 245//245 243//243 242//242 
f 244//244 246//246 247//247 
f 248//248 249//249 250//250 
f 251//251 252//252 249//249 
f 253//253 241//241 254//254 
f 247//247 245//245 244//244 
f 246//246 255//255 256//256 
f 255//255 257//257 258//258 
f 259//259 260//260 258//258 
f 261//261 262//262 260//260 
f 263//263 264//264 265//265 
f 266//266 267//267 268//268 
f 267//267 269//269 270//270 
f 269//269 271//271 272//272 
f 271//271 273//273 274//274 
f 273//273 275//275 276//276 
f 275//275 277//277 278//278 
f 279//279 250//250 280//280 
f 249//249 248//248 251//251 
f 281//281 282//282 252//252 
f 283//283 284//284 282//282 
f 285//285 286//286 287//287 
f 288//288 289//289 290//290 
f 289//289 291//291 292//292 
f 291//291 253//253 293//293 
f 243//243 254//254 241//241 
f 258//258 256//256 255//255 
f 260//260 259//259 261//261 
f 294//294 295//295 262//262 
f 296//296 297//297 295//295 
f 298//298 265//265 299//299 
f 265//265 298//298 263//263 
f 270//270 268//268 267//267 
f 274//274 272//272 271//271 
f 278//278 276//276 275//275 
f 277//277 300//300 301//301 
f 250//250 279//279 248//248 
f 282//282 281//281 283//283 
f 302//302 287//287 284//284 
f 287//287 302//302 285//285 
f 292//292 290//290 289//289 
f 254//254 293//293 253//253 
f 258//258 257//257 259//259 
f 295//295 294//294 296//296 
f 263//263 266//266 264//264 
f 272//272 270//270 269//269 
f 301//301 278//278 277//277 
f 300//300 303//303 304//304 
f 252//252 251//251 281//281 
f 285//285 288//288 286//286 
f 293//293 292//292 291//291 
f 262//262 261//261 294//294 
f 305//305 306//306 297//297 
f 307//307 308//308 306//306 
f 309//309 310//310 308//308 
f 311//311 299//299 310//310 
f 268//268 264//264 266//266 
f 304//304 301//301 300//300 
f 312//312 313//313 314//314 
f 315//315 280//280 313//313 
f 284//284 283//283 302//302 
f 256//256 247//247 246//246 
f 306//306 305//305 307//307 
f 310//310 309//309 311//311 
f 276//276 274//274 273//273 
f 303//303 316//316 317//317 
f 313//313 312//312 315//315 
f 290//290 286//286 288//288 
f 308//308 307//307 309//309 
f 317//317 304//304 303//303 
f 280//280 315//315 279//279 
f 299//299 311//311 298//298 
f 318//318 314//314 319//319 
f 297//297 296//296 305//305 
f 314//314 318//318 312//312 
f 319//319 320//320 318//318 
o mesh4
v 0.431052 0.431052 1.8288 
v 0.431052 0.431052 0.9144 
v 0.395131 0.395131 0.9144 
v 0.395131 0.395131 1.8288 
vn -0.707107 0.707107 -0 
vn -0.707107 0.707107 -0 
vn -0.707107 0.707107 -0 
vn -0.707107 0.707107 -0 
f 321//321 322//322 323//323 
f 323//323 324//324 321//321 
o mesh5
v 0.431052 -0.431052 1.8288 
v 0.395131 -0.395131 1.8288 
v 0.395131 -0.395131 0.9144 
v 0.431052 -0.431052 0.9144 
vn -0.707107 -0.707107 0 
vn -0.707107 -0.707107 0 
vn -0.707107 -0.707107 0 
vn -0.707107 -0.707107 0 
f 325//325 326//326 327//327 
f 327//327 328//328 325//325 
